/* XPM */
static char * icon16_xpm[] = {
"16 16 57 1",
" 	c None",
".	c #2CA5E0",
"+	c #29A4E0",
"@	c #2DA6E0",
"#	c #2AA4E0",
"$	c #179CDD",
"%	c #0996DB",
"&	c #119ADC",
"*	c #2BA5E0",
"=	c #2EA6E0",
"-	c #1B9EDE",
";	c #0494DA",
">	c #0C98DC",
",	c #3AABE2",
"'	c #8BCEEE",
")	c #BDE3F5",
"!	c #3BABE2",
"~	c #20A0DE",
"{	c #1A9DDD",
"]	c #31A7E1",
"^	c #71C2EA",
"/	c #B9E1F5",
"(	c #FAFDFE",
"_	c #FFFFFF",
":	c #FFFEFE",
"<	c #21A0DE",
"[	c #21A0DF",
"}	c #0A96DB",
"|	c #88CCED",
"1	c #8ECEED",
"2	c #0092DA",
"3	c #199DDD",
"4	c #55B6E6",
"5	c #C0E3F5",
"6	c #46B0E3",
"7	c #129ADD",
"8	c #32A8E1",
"9	c #149BDD",
"0	c #0092D9",
"a	c #52B5E5",
"b	c #F9FCFE",
"c	c #CFEAF7",
"d	c #0F98DB",
"e	c #008AD7",
"f	c #9AD4F0",
"g	c #82C9EC",
"h	c #2DA5E0",
"i	c #3CACE3",
"j	c #D0EAF7",
"k	c #46AFE3",
"l	c #199EDE",
"m	c #30A7E1",
"n	c #22A1DF",
"o	c #209FDD",
"p	c #27A3DF",
"q	c #2FA6E1",
"r	c #24A2DF",
"                ",
"     ......     ",
"    ........    ",
"   .......+..   ",
"  ....@#$%&*=.  ",
" ..@.-;>,')!~.. ",
" ..@{]^/(_:<[.. ",
" .*}|_____12=.. ",
" ..345____67... ",
" ..890ab_cd+... ",
" ...=+ef_g2=... ",
"  ...h3ijkl...  ",
"   ...mnopq..   ",
"    ...*r#h.    ",
"     ......     ",
"                "};
