/* XPM */
static char * icon32_xpm[] = {
"32 32 98 2",
"  	c None",
". 	c #2CA5E0",
"+ 	c #2DA6E0",
"@ 	c #1C9EDE",
"# 	c #0895DB",
"$ 	c #0A96DB",
"% 	c #2EA6E0",
"& 	c #2DA5E0",
"* 	c #1FA0DE",
"= 	c #0795DB",
"- 	c #0896DB",
"; 	c #33A8E1",
"> 	c #7FC8EC",
", 	c #7EC8EC",
"' 	c #27A3DF",
") 	c #28A3E0",
"! 	c #22A1DF",
"~ 	c #0A97DB",
"{ 	c #0594DA",
"] 	c #28A3DF",
"^ 	c #65BDE8",
"/ 	c #ACDCF3",
"( 	c #F0F9FD",
"_ 	c #FFFFFF",
": 	c #3DABE2",
"< 	c #179DDE",
"[ 	c #25A2DF",
"} 	c #0E98DC",
"| 	c #0394DA",
"1 	c #20A0DE",
"2 	c #5BB9E6",
"3 	c #A1D7F1",
"4 	c #E7F4FB",
"5 	c #DCEFF8",
"6 	c #209FDC",
"7 	c #23A2DF",
"8 	c #30A7E0",
"9 	c #0494DA",
"0 	c #1A9DDD",
"a 	c #51B4E6",
"b 	c #97D2F0",
"c 	c #DDF0FA",
"d 	c #8CCCEC",
"e 	c #0092D9",
"f 	c #24A2DF",
"g 	c #2AA4E0",
"h 	c #87CCED",
"i 	c #D2ECF8",
"j 	c #45AEE1",
"k 	c #139BDD",
"l 	c #0D98DC",
"m 	c #54B6E6",
"n 	c #CDE8F6",
"o 	c #0E98DA",
"p 	c #29A4E0",
"q 	c #93D0EE",
"r 	c #FCFDFD",
"s 	c #80C7EA",
"t 	c #0093DA",
"u 	c #2FA6E0",
"v 	c #0493DA",
"w 	c #38A9E0",
"x 	c #99D2EE",
"y 	c #FCFCFD",
"z 	c #FEFEFE",
"A 	c #3AAAE0",
"B 	c #0192D9",
"C 	c #30A5DE",
"D 	c #ABDAF1",
"E 	c #C1E3F4",
"F 	c #0995DA",
"G 	c #2BA5E0",
"H 	c #0C98DC",
"I 	c #0090D8",
"J 	c #D3ECF8",
"K 	c #74C2E8",
"L 	c #62BCE8",
"M 	c #F8FBFD",
"N 	c #31A5DF",
"O 	c #1C9FDE",
"P 	c #27A3E0",
"Q 	c #0C97DB",
"R 	c #D6EDF9",
"S 	c #B5DEF2",
"T 	c #0593D9",
"U 	c #60BBE7",
"V 	c #68BDE6",
"W 	c #0595DB",
"X 	c #28A4E0",
"Y 	c #119ADC",
"Z 	c #B9E0F4",
"` 	c #D0E9F5",
" .	c #22A0DD",
"..	c #23A2E0",
"+.	c #1A9CDD",
"@.	c #1E9DDC",
"#.	c #26A3DF",
"$.	c #25A2E0",
"                                                                ",
"                                                                ",
"                        . . . . . . . .                         ",
"                    . . . . . . . . . . . .                     ",
"                . . . . . . . . . . . . . . . .                 ",
"              . . . . . . . . . . . . . . . . . .               ",
"            . . . . . . . . . . . . . . . . . . . .             ",
"          . . . . . . . . . . . . . . . . . . . . . .           ",
"        . . . . . . . . . . . . . . . . . . . . . . . .         ",
"        . . . . . . . . . . . . . + . @ # $ . % . . . .         ",
"      . . . . . . . . . . . & & * = - ; > , ' ) . . . . .       ",
"      . . . . . . . . & + ! ~ { ] ^ / ( _ _ : < . . . . .       ",
"    . . . . . . . % [ } | 1 2 3 4 _ _ _ _ 5 6 7 . . . . . .     ",
"    . . . . . 8 ' 9 0 a b c _ _ _ _ _ _ _ d e % . . . . . .     ",
"    . . . . . f g h i _ _ _ _ _ _ _ _ _ _ j k . . . . . . .     ",
"    . . . . . l m _ _ _ _ _ _ _ _ _ _ _ n o p . . . . . . .     ",
"    . . . . . [ ! q r _ _ _ _ _ _ _ _ _ s t % . . . . . . .     ",
"    . . . . . u [ v w x y _ _ _ _ _ _ z A < . . . . . . . .     ",
"    . . . . . . + + k B C D _ _ _ _ _ E F G . . . . . . . .     ",
"    . . . . . . . . + % H I J _ _ _ _ K | + . . . . . . . .     ",
"      . . . . . . . . . u | L _ _ _ M N O . . . . . . . .       ",
"      . . . . . . . . . . P Q R _ _ S T . . . . . . . . .       ",
"        . . . . . . . . . u 9 U _ _ V W & . . . . . . .         ",
"        . . . . . . . . . . X Y Z `  .... . . . . . . .         ",
"          . . . . . . . . . u f +.@.! 8 . . . . . . .           ",
"            . . . . . . . . . % #.$.+ . . . . . . .             ",
"              . . . . . . . . . . . . . . . . . .               ",
"                . . . . . . . . . . . . . . . .                 ",
"                    . . . . . . . . . . . .                     ",
"                        . . . . . . . .                         ",
"                                                                ",
"                                                                "};
