/* XPM */
static char * icon48_xpm[] = {
"48 48 136 2",
"  	c None",
". 	c #2CA5E0",
"+ 	c #2DA5E0",
"@ 	c #2DA6E0",
"# 	c #20A0DE",
"$ 	c #1199DC",
"% 	c #1D9FDE",
"& 	c #30A7E1",
"* 	c #24A2DF",
"= 	c #0C97DC",
"- 	c #0494DA",
"; 	c #55B6E6",
"> 	c #33A8E1",
", 	c #1E9FDE",
"' 	c #2FA6E0",
") 	c #2EA6E0",
"! 	c #26A3DF",
"~ 	c #0F99DC",
"{ 	c #0393DA",
"] 	c #1C9EDD",
"^ 	c #9CD4F0",
"/ 	c #E4F3FB",
"( 	c #FFFFFF",
"_ 	c #E3F2FA",
": 	c #29A4E0",
"< 	c #139BDC",
"[ 	c #0293DA",
"} 	c #179CDD",
"| 	c #4AB2E4",
"1 	c #91D0EE",
"2 	c #D7EEF9",
"3 	c #4DB1E2",
"4 	c #139BDD",
"5 	c #2AA4E0",
"6 	c #189CDD",
"7 	c #1099DC",
"8 	c #43AFE3",
"9 	c #84CAED",
"0 	c #CEEAF7",
"a 	c #DCEEF7",
"b 	c #1D9DDB",
"c 	c #24A2E0",
"d 	c #1B9EDE",
"e 	c #0594DA",
"f 	c #0C97DB",
"g 	c #38AAE1",
"h 	c #7CC7EB",
"i 	c #C1E4F6",
"j 	c #8ECCEA",
"k 	c #0092D9",
"l 	c #0695DA",
"m 	c #0896DA",
"n 	c #31A7E0",
"o 	c #6FC1E9",
"p 	c #B9E1F4",
"q 	c #F8FCFE",
"r 	c #46AEE0",
"s 	c #129ADD",
"t 	c #25A2DF",
"u 	c #1C9EDE",
"v 	c #65BDE8",
"w 	c #ACDCF2",
"x 	c #F1F9FD",
"y 	c #CFE8F4",
"z 	c #1097DA",
"A 	c #28A4E0",
"B 	c #A6D9F1",
"C 	c #82C7E9",
"D 	c #27A3DF",
"E 	c #0F99DB",
"F 	c #EBF6FC",
"G 	c #FEFDFD",
"H 	c #3DAADF",
"I 	c #169DDE",
"J 	c #50B3E4",
"K 	c #ECF5FA",
"L 	c #C3E3F3",
"M 	c #0894D9",
"N 	c #2BA5E0",
"O 	c #2BA3DD",
"P 	c #89CAEA",
"Q 	c #EEF5FA",
"R 	c #78C3E8",
"S 	c #199EDE",
"T 	c #29A2DD",
"U 	c #86C9EA",
"V 	c #EAF4F9",
"W 	c #F9FBFC",
"X 	c #31A5DE",
"Y 	c #1B9FDF",
"Z 	c #2FA6E1",
"` 	c #27A1DC",
" .	c #81C6E9",
"..	c #F3F8FB",
"+.	c #B8DEF1",
"@.	c #0693D9",
"#.	c #008CD7",
"$.	c #3BAAE0",
"%.	c #F9FCFE",
"&.	c #6ABDE6",
"*.	c #0594DB",
"=.	c #2DA6E1",
"-.	c #008DD8",
";.	c #99D3EF",
">.	c #2AA2DD",
",.	c #1EA0DF",
"'.	c #F9FDFE",
").	c #A9D7EF",
"!.	c #0292D8",
"~.	c #0090D9",
"{.	c #9CD5F0",
"].	c #61B9E5",
"^.	c #0796DB",
"/.	c #169CDD",
"(.	c #FCFEFE",
"_.	c #E8F3F9",
":.	c #209EDB",
"<.	c #22A2E0",
"[.	c #0091D9",
"}.	c #A1D7F1",
"|.	c #A0D3EE",
"1.	c #0091D8",
"2.	c #2AA4DF",
"3.	c #4FB1E1",
"4.	c #0D98DC",
"5.	c #0A97DB",
"6.	c #62BBE6",
"7.	c #D5EAF5",
"8.	c #9DD1EB",
"9.	c #1399DB",
"0.	c #2AA5E0",
"a.	c #2EA6E1",
"b.	c #149BDC",
"c.	c #1F9DDB",
"d.	c #149ADB",
"e.	c #27A3E0",
"                                                                                                ",
"                                                                                                ",
"                                                                                                ",
"                                        . . . . . . . .                                         ",
"                                . . . . . . . . . . . . . . . .                                 ",
"                            . . . . . . . . . . . . . . . . . . . .                             ",
"                        . . . . . . . . . . . . . . . . . . . . . . . .                         ",
"                      . . . . . . . . . . . . . . . . . . . . . . . . . .                       ",
"                    . . . . . . . . . . . . . . . . . . . . . . . . . . . .                     ",
"                  . . . . . . . . . . . . . . . . . . . . . . . . . . . . . .                   ",
"                . . . . . . . . . . . . . . . . . . . . . . . . . . . . . . . .                 ",
"              . . . . . . . . . . . . . . . . . . . . . . . . . . . . . . . . . .               ",
"            . . . . . . . . . . . . . . . . . . . . . . . . . . . . . . . . . . . .             ",
"            . . . . . . . . . . . . . . . . . . . . . . . . . . . . . . . . . . . .             ",
"          . . . . . . . . . . . . . . . . . . . . . . . + @ # $ % & . . . . . . . . .           ",
"          . . . . . . . . . . . . . . . . . . . . + @ * = - . ; > , ' . . . . . . . .           ",
"        . . . . . . . . . . . . . . . . . . . ) ! ~ { ] ; ^ / ( _ . , . . . . . . . . .         ",
"        . . . . . . . . . . . . . . . . ) : < [ } | 1 2 ( ( ( ( ( 3 4 . . . . . . . . .         ",
"        . . . . . . . . . . . . . @ 5 6 { 7 8 9 0 ( ( ( ( ( ( ( a b c . . . . . . . . .         ",
"        . . . . . . . . . . @ . d e f g h i ( ( ( ( ( ( ( ( ( ( j k @ . . . . . . . . . .       ",
"      . . . . . . . . . & ! l m n o p q ( ( ( ( ( ( ( ( ( ( ( ( r s . . . . . . . . . . .       ",
"      . . . . . . . . + t u v w x ( ( ( ( ( ( ( ( ( ( ( ( ( ( y z A . . . . . . . . . . .       ",
"      . . . . . . . . : 7 B ( ( ( ( ( ( ( ( ( ( ( ( ( ( ( ( ( C k ) . . . . . . . . . . .       ",
"      . . . . . . . . D E F ( ( ( ( ( ( ( ( ( ( ( ( ( ( ( ( G H I . . . . . . . . . . . .       ",
"      . . . . . . . . . 4 J K ( ( ( ( ( ( ( ( ( ( ( ( ( ( ( L M N . . . . . . . . . . . .       ",
"      . . . . . . . . . & f O P Q ( ( ( ( ( ( ( ( ( ( ( ( ( R [ @ . . . . . . . . . . . .       ",
"      . . . . . . . . . + & S k T U V ( ( ( ( ( ( ( ( ( ( W X Y . . . . . . . . . . . . .       ",
"      . . . . . . . . . . . + Z S k `  ...( ( ( ( ( ( ( ( +.@.N . . . . . . . . . . . . .       ",
"      . . . . . . . . . . . . . + Z Y #.$.%.( ( ( ( ( ( ( &.*.+ . . . . . . . . . . . . .       ",
"        . . . . . . . . . . . . . . + =.-.;.( ( ( ( ( ( ..>.,.. . . . . . . . . . . . .         ",
"        . . . . . . . . . . . . . . . + } ' '.( ( ( ( ( ).!.+ . . . . . . . . . . . . .         ",
"        . . . . . . . . . . . . . . . . ' ~.{.( ( ( ( ( ].^.+ . . . . . . . . . . . . .         ",
"          . . . . . . . . . . . . . . . + /.n (.( ( ( _.:.<.. . . . . . . . . . . . .           ",
"          . . . . . . . . . . . . . . . . ) [.}.( ( ( |.1.@ . . . . . . . . . . . . .           ",
"            . . . . . . . . . . . . . . . @ /.2.( ( ( 3.4.+ . . . . . . . . . . . .             ",
"            . . . . . . . . . . . . . . . . Z 5.6.7.8.9.0.. . . . . . . . . . . . .             ",
"              . . . . . . . . . . . . . . . + a.b.c.d.e.' . . . . . . . . . . . .               ",
"                . . . . . . . . . . . . . . . + . c : + . . . . . . . . . . . .                 ",
"                  . . . . . . . . . . . . . . . . . . . . . . . . . . . . . .                   ",
"                    . . . . . . . . . . . . . . . . . . . . . . . . . . . .                     ",
"                      . . . . . . . . . . . . . . . . . . . . . . . . . .                       ",
"                        . . . . . . . . . . . . . . . . . . . . . . . .                         ",
"                            . . . . . . . . . . . . . . . . . . . .                             ",
"                                . . . . . . . . . . . . . . . .                                 ",
"                                      . . . . . . . . . .                                       ",
"                                                                                                ",
"                                                                                                ",
"                                                                                                "};
