/* XPM */
static char * icon64_xpm[] = {
"64 64 178 2",
"  	c None",
". 	c #2CA5E0",
"+ 	c #2DA5E0",
"@ 	c #22A1DF",
"# 	c #20A0DE",
"$ 	c #2BA5E0",
"% 	c #2EA6E0",
"& 	c #26A2DF",
"* 	c #0F99DC",
"= 	c #0695DA",
"- 	c #24A2DF",
"; 	c #1099DC",
"> 	c #29A4E0",
", 	c #28A3E0",
"' 	c #129ADC",
") 	c #0293DA",
"! 	c #189CDD",
"~ 	c #4EB3E5",
"{ 	c #97D2EF",
"] 	c #DBEFFA",
"^ 	c #E4F4FB",
"/ 	c #89CCEE",
"( 	c #169CDD",
"_ 	c #2AA4E0",
": 	c #2DA6E0",
"< 	c #0393DA",
"[ 	c #139ADC",
"} 	c #45AFE3",
"| 	c #89CCED",
"1 	c #D0EBF8",
"2 	c #FFFFFF",
"3 	c #44AEE2",
"4 	c #159CDD",
"5 	c #1A9EDE",
"6 	c #0494DA",
"7 	c #0D98DB",
"8 	c #3CABE2",
"9 	c #7EC8EC",
"0 	c #C5E6F6",
"a 	c #FFFFFE",
"b 	c #4CB0E1",
"c 	c #149CDE",
"d 	c #1E9FDE",
"e 	c #0996DB",
"f 	c #33A8E1",
"g 	c #73C3EA",
"h 	c #BBE2F5",
"i 	c #FBFDFE",
"j 	c #D4EAF5",
"k 	c #189ADA",
"l 	c #26A4E0",
"m 	c #21A1DE",
"n 	c #68BFE9",
"o 	c #B0DDF3",
"p 	c #F3F9FD",
"q 	c #87C8E9",
"r 	c #0092D9",
"s 	c #0C98DC",
"t 	c #23A1DF",
"u 	c #5EBAE7",
"v 	c #A5D8F1",
"w 	c #E9F5FB",
"x 	c #40ABDF",
"y 	c #159CDE",
"z 	c #2FA6E0",
"A 	c #1C9EDD",
"B 	c #54B6E6",
"C 	c #9AD4F0",
"D 	c #E0F2FA",
"E 	c #C9E5F3",
"F 	c #0C96D8",
"G 	c #2AA5E0",
"H 	c #31A7E1",
"I 	c #1D9FDE",
"J 	c #4AB2E4",
"K 	c #8FCFEE",
"L 	c #D6EDF9",
"M 	c #7CC4E7",
"N 	c #0193D9",
"O 	c #B5DFF4",
"P 	c #FCFCFC",
"Q 	c #37A7DE",
"R 	c #199EDF",
"S 	c #0394DA",
"T 	c #BDDFF0",
"U 	c #0893D8",
"V 	c #2CA5E1",
"W 	c #0695DB",
"X 	c #80C9EC",
"Y 	c #70BFE6",
"Z 	c #0394DB",
"` 	c #25A2DF",
" .	c #199DDD",
"..	c #B9DFF2",
"+.	c #F5F9FB",
"@.	c #2DA3DC",
"#.	c #1DA0E0",
"$.	c #30A7E1",
"%.	c #1B9EDE",
"&.	c #1198DB",
"*.	c #77C2E7",
"=.	c #DDEDF6",
"-.	c #B0DAEF",
";.	c #0392D8",
">.	c #30A6E0",
",.	c #24A2E0",
"'.	c #0193DA",
").	c #1D9DDB",
"!.	c #74C0E6",
"~.	c #DAECF6",
"{.	c #65BAE4",
"].	c #0796DB",
"^.	c #2FA6E1",
"/.	c #20A1E0",
"(.	c #1C9CDA",
"_.	c #D6EBF5",
":.	c #EEF5F9",
"<.	c #259FDB",
"[.	c #21A2E0",
"}.	c #21A1E0",
"|.	c #199BDA",
"1.	c #6DBDE5",
"2.	c #D7EBF5",
"3.	c #A4D4ED",
"4.	c #0192D8",
"5.	c #22A2E0",
"6.	c #0C95D8",
"7.	c #95CFEC",
"8.	c #5AB5E3",
"9.	c #0A97DC",
"0.	c #189EDF",
"a.	c #0091D9",
"b.	c #D3ECF8",
"c.	c #E4F1F7",
"d.	c #24A3E0",
"e.	c #61BCE8",
"f.	c #98CFEB",
"g.	c #0091D8",
"h.	c #27A3DF",
"i.	c #0C97DB",
"j.	c #4FB1E1",
"k.	c #0E99DD",
"l.	c #65BDE8",
"m.	c #D9ECF5",
"n.	c #1599D9",
"o.	c #27A4E0",
"p.	c #26A3E0",
"q.	c #0E98DB",
"r.	c #D9EEF9",
"s.	c #8CCBEA",
"t.	c #68BEE9",
"u.	c #45ACE0",
"v.	c #139CDE",
"w.	c #26A2E0",
"x.	c #0F99DB",
"y.	c #DCF0FA",
"z.	c #CEE7F4",
"A.	c #0F96D9",
"B.	c #29A5E0",
"C.	c #6ABFE9",
"D.	c #83C6E8",
"E.	c #27A3E0",
"F.	c #0A96DB",
"G.	c #C6E5F5",
"H.	c #FFFEFC",
"I.	c #2DA2DB",
"J.	c #1A9FDF",
"K.	c #179CDE",
"L.	c #23A0DD",
"M.	c #B3DCF0",
"N.	c #C9E4F1",
"O.	c #5CB4E0",
"P.	c #2FA7E1",
"Q.	c #1298DA",
"R.	c #1799D9",
"S.	c #1199DC",
"T.	c #2FA7E2",
"U.	c #27A4E1",
"                                                                                                                                ",
"                                                                                                                                ",
"                                                                                                                                ",
"                                                                                                                                ",
"                                                      . . . . . . . . . .                                                       ",
"                                              . . . . . . . . . . . . . . . . . .                                               ",
"                                        . . . . . . . . . . . . . . . . . . . . . . . .                                         ",
"                                    . . . . . . . . . . . . . . . . . . . . . . . . . . . .                                     ",
"                                  . . . . . . . . . . . . . . . . . . . . . . . . . . . . . .                                   ",
"                              . . . . . . . . . . . . . . . . . . . . . . . . . . . . . . . . . .                               ",
"                            . . . . . . . . . . . . . . . . . . . . . . . . . . . . . . . . . . . .                             ",
"                          . . . . . . . . . . . . . . . . . . . . . . . . . . . . . . . . . . . . . .                           ",
"                        . . . . . . . . . . . . . . . . . . . . . . . . . . . . . . . . . . . . . . . .                         ",
"                      . . . . . . . . . . . . . . . . . . . . . . . . . . . . . . . . . . . . . . . . . .                       ",
"                    . . . . . . . . . . . . . . . . . . . . . . . . . . . . . . . . . . . . . . . . . . . .                     ",
"                  . . . . . . . . . . . . . . . . . . . . . . . . . . . . . . . . . . . . . . . . . . . . . .                   ",
"                  . . . . . . . . . . . . . . . . . . . . . . . . . . . . . . . . . . . . . . . . . . . . . .                   ",
"                . . . . . . . . . . . . . . . . . . . . . . . . . . . . . . . . . . . . . . . . . . . . . . . .                 ",
"              . . . . . . . . . . . . . . . . . . . . . . . . . . . . . . . . . . . . . . . . . . . . . . . . . .               ",
"              . . . . . . . . . . . . . . . . . . . . . . . . . . . . . . . . + . @ # $ + . . . . . . . . . . . .               ",
"            . . . . . . . . . . . . . . . . . . . . . . . . . . . . . . . % & * = - $ ; > % . . . . . . . . . . . .             ",
"            . . . . . . . . . . . . . . . . . . . . . . . . . . . . % , ' ) ! ~ { ] ^ / ( _ . . . . . . . . . . . .             ",
"            . . . . . . . . . . . . . . . . . . . . . . . . . : _ ( < [ } | 1 2 2 2 2 2 3 4 . . . . . . . . . . . .             ",
"          . . . . . . . . . . . . . . . . . . . . . . . : . 5 6 7 8 9 0 2 2 2 2 2 2 2 a b c . . . . . . . . . . . . .           ",
"          . . . . . . . . . . . . . . . . . . . . + + d = e f g h i 2 2 2 2 2 2 2 2 2 j k l . . . . . . . . . . . . .           ",
"          . . . . . . . . . . . . . . . . . + + m e = _ n o p 2 2 2 2 2 2 2 2 2 2 2 2 q r % . . . . . . . . . . . . .           ",
"          . . . . . . . . . . . . . . + % - s 6 t u v w 2 2 2 2 2 2 2 2 2 2 2 2 2 2 a x y . . . . . . . . . . . . . .           ",
"        . . . . . . . . . . . . . z > ; < A B C D 2 2 2 2 2 2 2 2 2 2 2 2 2 2 2 2 2 E F G . . . . . . . . . . . . . . .         ",
"        . . . . . . . . . . . . H I ; J K L 2 2 2 2 2 2 2 2 2 2 2 2 2 2 2 2 2 2 2 2 M N % . . . . . . . . . . . . . . .         ",
"        . . . . . . . . . . . . t t O 2 2 2 2 2 2 2 2 2 2 2 2 2 2 2 2 2 2 2 2 2 2 P Q R . . . . . . . . . . . . . . . .         ",
"        . . . . . . . . . . . . S | 2 2 2 2 2 2 2 2 2 2 2 2 2 2 2 2 2 2 2 2 2 2 2 T U V . . . . . . . . . . . . . . . .         ",
"        . . . . . . . . . . . . W X 2 2 2 2 2 2 2 2 2 2 2 2 2 2 2 2 2 2 2 2 2 2 2 Y Z : . . . . . . . . . . . . . . . .         ",
"        . . . . . . . . . . . . `  ...2 2 2 2 2 2 2 2 2 2 2 2 2 2 2 2 2 2 2 2 2 +.@.#.. . . . . . . . . . . . . . . . .         ",
"        . . . . . . . . . . . . $.%.&.*.=.2 2 2 2 2 2 2 2 2 2 2 2 2 2 2 2 2 2 2 -.;.: . . . . . . . . . . . . . . . . .         ",
"        . . . . . . . . . . . . . >.,.'.).!.~.2 2 2 2 2 2 2 2 2 2 2 2 2 2 2 2 2 {.].+ . . . . . . . . . . . . . . . . .         ",
"        . . . . . . . . . . . . . . . ^./.'.(.Y _.2 2 2 2 2 2 2 2 2 2 2 2 2 2 :.<.[.. . . . . . . . . . . . . . . . . .         ",
"        . . . . . . . . . . . . . . . . . ^.}.'.|.1.2.2 2 2 2 2 2 2 2 2 2 2 2 3.4.: . . . . . . . . . . . . . . . . . .         ",
"          . . . . . . . . . . . . . . . . . . ^.5.'.6.7.2 2 2 2 2 2 2 2 2 2 2 8.9.+ . . . . . . . . . . . . . . . . .           ",
"          . . . . . . . . . . . . . . . . . . . . z 0.a.b.2 2 2 2 2 2 2 2 2 c.(.d.. . . . . . . . . . . . . . . . . .           ",
"          . . . . . . . . . . . . . . . . . . . . . z S e.2 2 2 2 2 2 2 2 2 f.g.% . . . . . . . . . . . . . . . . . .           ",
"          . . . . . . . . . . . . . . . . . . . . . . h.i.L 2 2 2 2 2 2 2 2 j.k.+ . . . . . . . . . . . . . . . . . .           ",
"            . . . . . . . . . . . . . . . . . . . . . z S l.2 2 2 2 2 2 2 m.n.o.. . . . . . . . . . . . . . . . . .             ",
"            . . . . . . . . . . . . . . . . . . . . . . p.q.r.2 2 2 2 2 2 s.a.% . . . . . . . . . . . . . . . . . .             ",
"            . . . . . . . . . . . . . . . . . . . . . . z < t.2 2 2 2 2 a u.v.. . . . . . . . . . . . . . . . . . .             ",
"              . . . . . . . . . . . . . . . . . . . . . . w.x.y.2 2 2 2 z.A.B.. . . . . . . . . . . . . . . . . .               ",
"              . . . . . . . . . . . . . . . . . . . . . . z ) C.2 2 2 2 D.r % . . . . . . . . . . . . . . . . . .               ",
"                . . . . . . . . . . . . . . . . . . . . . . E.F.G.2 2 H.I.J.. . . . . . . . . . . . . . . . . .                 ",
"                  . . . . . . . . . . . . . . . . . . . . . z K.L.M.N.O.; P.. . . . . . . . . . . . . . . . .                   ",
"                  . . . . . . . . . . . . . . . . . . . . . . H I Q.R.S.T.+ . . . . . . . . . . . . . . . . .                   ",
"                    . . . . . . . . . . . . . . . . . . . . . . + > U.. . . . . . . . . . . . . . . . . . .                     ",
"                      . . . . . . . . . . . . . . . . . . . . . . . . . . . . . . . . . . . . . . . . . .                       ",
"                        . . . . . . . . . . . . . . . . . . . . . . . . . . . . . . . . . . . . . . . .                         ",
"                          . . . . . . . . . . . . . . . . . . . . . . . . . . . . . . . . . . . . . .                           ",
"                            . . . . . . . . . . . . . . . . . . . . . . . . . . . . . . . . . . . .                             ",
"                              . . . . . . . . . . . . . . . . . . . . . . . . . . . . . . . . . .                               ",
"                                  . . . . . . . . . . . . . . . . . . . . . . . . . . . . . .                                   ",
"                                    . . . . . . . . . . . . . . . . . . . . . . . . . . . .                                     ",
"                                        . . . . . . . . . . . . . . . . . . . . . . . .                                         ",
"                                              . . . . . . . . . . . . . . . . . .                                               ",
"                                                      . . . . . . . . . .                                                       ",
"                                                                                                                                ",
"                                                                                                                                ",
"                                                                                                                                ",
"                                                                                                                                "};
