<?xml version="1.0" encoding="utf-8" standalone="no" ?>
<svg
  xmlns="http://www.w3.org/2000/svg"
  xmlns:cc="http://creativecommons.org/ns#"
  xmlns:rdf="http://www.w3.org/1999/02/22-rdf-syntax-ns#"
  xmlns:sodipodi="http://sodipodi.sourceforge.net/DTD/sodipodi-0.dtd"
  xmlns:inkscape="http://www.inkscape.org/namespaces/inkscape"
  sodipodi:docname="telegram.svg"
  version="1.1"
  viewBox="0 0 256 256"
>
  <metadata>
    <rdf:RDF>
      <cc:Work>
        <cc:license rdf:resource="http://creativecommons.org/publicdomain/zero/1.0/" />
        <cc:attributionName>Diego Sanguinetti (DSan)</cc:attributionName>
        <cc:attributionURL rdf:resource="https://commons.wikimedia.org/wiki/File:Telegram_2019_Logo.svg" />
      </cc:Work>
      <cc:License rdf:about="http://creativecommons.org/publicdomain/zero/1.0/">
        <cc:permits rdf:resource="http://creativecommons.org/ns#Reproduction" />
        <cc:permits rdf:resource="http://creativecommons.org/ns#Distribution" />
        <cc:permits rdf:resource="http://creativecommons.org/ns#DerivativeWorks" />
      </cc:License>
    </rdf:RDF>
  </metadata>
  <sodipodi:namedview
    pagecolor="#ffffff"
    bordercolor="#666666"
    borderopacity="1"
    objecttolerance="10"
    gridtolerance="10"
    guidetolerance="10"
    inkscape:pageopacity="0"
    inkscape:pageshadow="false"
    inkscape:window-width="1366"
    inkscape:window-height="712"
    showgrid="false"
    inkscape:zoom="1"
    inkscape:cx="128"
    inkscape:cy="128"
    inkscape:window-x="0"
    inkscape:window-y="-1"
    inkscape:window-maximized="1"
    inkscape:current-layer="ro"
  />
  <defs>
    <linearGradient id="a" x1="46.136" x2="28.836" y1="11.536" y2="51.9" gradientUnits="userSpaceOnUse">
      <stop stop-color="#37aee2" offset="0" />
      <stop stop-color="#1e96c8" offset="1" />
    </linearGradient>
  </defs>
  <g id="ro" transform="translate(12 12) scale(3.3526)">
    <circle cy="34.6" cx="34.6" r="34.6" fill="url(#a)" />
    <path d="M14.4 34.3l23.3-9.6c2.3-1 10.1-4.2 10.1-4.2s3.6-1.4 3.3 2c-.1 1.4-.9 6.3-1.7 11.6l-2.5 15.7s-.2 2.3-1.9 2.7c-1.7.4-4.5-1.4-5-1.8-.4-.3-7.5-4.8-10.1-7-.7-.6-1.5-1.8.1-3.2 3.6-3.3 7.9-7.4 10.5-10 1.2-1.2 2.4-4-2.6-.6l-14.1 9.5s-1.6 1-4.6.1c-3-.9-6.5-2.1-6.5-2.1s-2.4-1.5 1.7-3.1z" fill="#ffffff" />
  </g>
</svg>
